# xmcd CD database file
#
# Track frame offsets:
#	150
#	22643
#	47689
#	86178
#	89323
#	119795
#	124089
#	130942
#	160887
#	251941
#
# Disc length: 3465 seconds
#
# Revision: 1
# Processed by: cddbd v1.4PL0 Copyright (c) Steve Scherf et al.
# Submitted via: NeoAudio 9.9.9
#
DISCID=850d870a
DTITLE=Cannonball Adderley - Cannonball Adderley and Charles Lloyd
DYEAR=1995
DGENRE=Jazz
TTITLE0=Scotch and Water
TTITLE1=Interview
TTITLE2=Arriving Soon
TTITLE3=Interview
TTITLE4=Unit Seven
TTITLE5=Commentary by Ralph Gleason
TTITLE6=Unit Seven (Cont'd)
TTITLE7=Love Ship
TTITLE8=Tagore Passin' Thru
TTITLE9=Forest Flower
EXTD=YEAR: 1995
EXTT0=
EXTT1=
EXTT2=
EXTT3=
EXTT4=
EXTT5=
EXTT6=
EXTT7=
EXTT8=
EXTT9=
PLAYORDER=
